<svg width="58" height="111" viewBox="0 0 58 111" fill="none" xmlns="http://www.w3.org/2000/svg">
<g id="rocket">
<g id="body">
<path fill-rule="evenodd" clip-rule="evenodd" d="M51.6204 90.3691C47.6122 84.0279 41.3974 79.4213 39.7946 81.6033C38.8908 82.8339 37.6871 82.9241 33.6525 82.0636C30.4208 81.3743 26.9482 81.353 23.897 82.0038C20.8781 82.6477 18.7858 82.6406 18.1295 81.9836C15.8951 79.7493 8.70785 85.2605 4.45836 92.4665C2.71269 95.4267 1.63882 93.7307 1.09323 87.1516C0.463695 79.5602 3.04627 71.9451 8.11363 66.4509C12.0775 62.1531 12.0775 62.1531 12.0775 47.3581V47.358C12.0775 30.0886 15.1098 18.2707 22.0833 8.36254C27.58 0.552646 28.8669 -0.0269813 32.2176 3.79805C41.1465 13.9911 45.6988 28.9956 45.8634 48.7751C45.9796 62.7407 46.004 62.8734 48.9802 65.7248C55.2893 71.7693 58.6027 85.1664 55.661 92.7374C54.7276 95.1398 54.5826 95.0553 51.6204 90.3691ZM28.7728 45.2961C32.6075 45.2961 35.7161 42.1875 35.7161 38.3528C35.7161 34.5182 32.6075 31.4095 28.7728 31.4095C24.9382 31.4095 21.8295 34.5182 21.8295 38.3528C21.8295 42.1875 24.9382 45.2961 28.7728 45.2961Z" fill="#5429D4"/>
<path d="M39.7946 81.6033L40.2251 81.9195L40.2251 81.9195L39.7946 81.6033ZM51.6204 90.3691L51.169 90.6545L51.169 90.6545L51.6204 90.3691ZM33.6525 82.0636L33.7639 81.5412L33.7639 81.5412L33.6525 82.0636ZM23.897 82.0038L24.0084 82.5262L24.0084 82.5262L23.897 82.0038ZM18.1295 81.9836L18.5073 81.6061L18.5071 81.606L18.1295 81.9836ZM4.45836 92.4665L3.9983 92.1952L3.9983 92.1952L4.45836 92.4665ZM1.09323 87.1516L1.6255 87.1074L1.6255 87.1074L1.09323 87.1516ZM8.11363 66.4509L7.72102 66.0888L7.72102 66.0888L8.11363 66.4509ZM22.0833 8.36254L21.6466 8.05514L21.6466 8.05514L22.0833 8.36254ZM32.2176 3.79805L31.8158 4.14998L31.8158 4.14998L32.2176 3.79805ZM45.8634 48.7751L45.3293 48.7795L45.3293 48.7795L45.8634 48.7751ZM48.9802 65.7248L48.6107 66.1105L48.6107 66.1105L48.9802 65.7248ZM55.661 92.7374L56.1588 92.9308L56.1588 92.9308L55.661 92.7374ZM40.2251 81.9195C40.4358 81.6326 40.8412 81.477 41.6218 81.6779C42.3967 81.8774 43.3846 82.4016 44.4875 83.2191C46.6834 84.8468 49.1957 87.5327 51.169 90.6545L52.0719 90.0837C50.0369 86.8643 47.4377 84.0763 45.1236 82.3609C43.9714 81.5069 42.8546 80.8922 41.8881 80.6435C40.9274 80.3962 39.9549 80.483 39.3642 81.2872L40.2251 81.9195ZM33.5411 82.5859C35.5511 83.0146 36.9322 83.2255 37.9375 83.1502C38.4534 83.1116 38.8939 82.9966 39.28 82.7825C39.6671 82.5678 39.9664 82.2717 40.2251 81.9195L39.3642 81.2872C39.1709 81.5502 38.9809 81.7269 38.7619 81.8483C38.5421 81.9703 38.2601 82.0548 37.8577 82.085C37.0265 82.1473 35.7885 81.973 33.7639 81.5412L33.5411 82.5859ZM24.0084 82.5262C26.9818 81.8919 30.3784 81.9114 33.5411 82.5859L33.7639 81.5412C30.4632 80.8373 26.9145 80.8141 23.7856 81.4815L24.0084 82.5262ZM17.7516 82.3611C18.0116 82.6213 18.3705 82.7779 18.7548 82.873C19.1453 82.9695 19.6083 83.0138 20.1254 83.0156C21.1602 83.0192 22.4789 82.8524 24.0084 82.5262L23.7856 81.4815C22.2962 81.7991 21.0593 81.9507 20.1291 81.9474C19.6638 81.9458 19.292 81.9054 19.0112 81.836C18.7243 81.7651 18.5755 81.6744 18.5073 81.6061L17.7516 82.3611ZM4.91842 92.7378C7.01083 89.1896 9.82544 86.0634 12.3746 84.1088C13.6525 83.1289 14.834 82.4664 15.8012 82.1774C16.7827 81.8841 17.4001 82.0096 17.7518 82.3613L18.5071 81.606C17.7417 80.8405 16.6228 80.817 15.4954 81.1539C14.3538 81.495 13.054 82.2417 11.7246 83.2611C9.05916 85.3049 6.15538 88.5374 3.9983 92.1952L4.91842 92.7378ZM0.560961 87.1957C0.698181 88.8504 0.869639 90.2119 1.07971 91.2772C1.28662 92.3265 1.54116 93.1455 1.87451 93.672C2.04312 93.9383 2.26194 94.1783 2.55245 94.3081C2.86487 94.4477 3.18989 94.4288 3.4861 94.2998C3.76382 94.1788 4.01209 93.9647 4.23563 93.711C4.46294 93.4531 4.68996 93.1252 4.91842 92.7378L3.9983 92.1952C3.79034 92.5479 3.60194 92.8145 3.43426 93.0047C3.26281 93.1993 3.13653 93.2869 3.05956 93.3204C3.00108 93.3459 2.99129 93.3342 2.98821 93.3328C2.96322 93.3216 2.88585 93.2725 2.77702 93.1006C2.5555 92.7507 2.33017 92.0972 2.12773 91.0705C1.92845 90.06 1.76108 88.7423 1.6255 87.1074L0.560961 87.1957ZM7.72102 66.0888C2.55011 71.6953 -0.080663 79.4586 0.560961 87.1957L1.6255 87.1074C1.00805 79.6618 3.54242 72.195 8.50624 66.813L7.72102 66.0888ZM11.5434 47.3581C11.5434 54.7905 11.5403 58.4145 11.0591 60.7324C10.5968 62.9591 9.70569 63.9369 7.72102 66.0888L8.50624 66.813C10.4854 64.6671 11.5763 63.496 12.1049 60.9495C12.6147 58.4941 12.6116 54.7206 12.6116 47.3581H11.5434ZM11.5434 47.358V47.3581H12.6116V47.358H11.5434ZM21.6466 8.05514C14.588 18.0842 11.5434 30.0236 11.5434 47.358H12.6116C12.6116 30.1536 15.6317 18.4572 22.5201 8.66994L21.6466 8.05514ZM32.6193 3.44612C31.7787 2.48644 31.0155 1.73913 30.2449 1.32806C29.4302 0.893491 28.6097 0.836642 27.7359 1.23022C26.9111 1.60172 26.0672 2.3621 25.1107 3.46709C24.1458 4.58176 23.0217 6.10133 21.6466 8.05514L22.5201 8.66994C23.8933 6.71881 24.9913 5.23721 25.9184 4.1662C26.8538 3.08551 27.5717 2.47569 28.1745 2.20418C28.7284 1.95474 29.2013 1.98206 29.7421 2.27054C30.327 2.58252 30.9811 3.19715 31.8158 4.14998L32.6193 3.44612ZM46.3974 48.7707C46.2322 28.9207 41.6639 13.7712 32.6193 3.44612L31.8158 4.14998C40.629 14.2109 45.1653 29.0705 45.3293 48.7795L46.3974 48.7707ZM49.3497 65.3391C48.5968 64.6178 48.0823 64.1149 47.6978 63.5404C47.3246 62.9827 47.061 62.3349 46.8746 61.3212C46.4927 59.2445 46.4558 55.7837 46.3974 48.7707L45.3293 48.7795C45.3871 55.7321 45.4206 59.3205 45.824 61.5144C46.0302 62.636 46.338 63.4289 46.81 64.1344C47.2709 64.8231 47.8755 65.4061 48.6107 66.1105L49.3497 65.3391ZM56.1588 92.9308C57.6847 89.0038 57.5716 83.6389 56.3081 78.5304C55.0435 73.4174 52.6003 68.4534 49.3497 65.3391L48.6107 66.1105C51.6692 69.0407 54.0372 73.7975 55.2712 78.7869C56.5063 83.7808 56.579 88.9 55.1632 92.544L56.1588 92.9308ZM51.169 90.6545C51.9075 91.8229 52.4797 92.7193 52.934 93.3622C53.1614 93.684 53.3665 93.9528 53.5546 94.1652C53.7383 94.3728 53.9289 94.5536 54.1314 94.6723C54.3437 94.7966 54.6101 94.8749 54.8985 94.7934C55.1676 94.7174 55.3536 94.5297 55.4808 94.3588C55.7247 94.0313 55.9348 93.5074 56.1588 92.9308L55.1632 92.544C54.9205 93.1686 54.7624 93.535 54.624 93.7209C54.5601 93.8067 54.5515 93.7814 54.6082 93.7654C54.6844 93.7439 54.7209 93.7796 54.6715 93.7507C54.6124 93.716 54.5098 93.6327 54.3544 93.4572C54.2034 93.2866 54.0237 93.0533 53.8063 92.7457C53.3711 92.1298 52.8144 91.2584 52.0719 90.0837L51.169 90.6545ZM35.182 38.3528C35.182 41.8925 32.3125 44.762 28.7728 44.762V45.8302C32.9025 45.8302 36.2502 42.4825 36.2502 38.3528H35.182ZM28.7728 31.9436C32.3125 31.9436 35.182 34.8131 35.182 38.3528H36.2502C36.2502 34.2232 32.9025 30.8754 28.7728 30.8754V31.9436ZM22.3636 38.3528C22.3636 34.8131 25.2331 31.9436 28.7728 31.9436V30.8754C24.6432 30.8754 21.2954 34.2232 21.2954 38.3528H22.3636ZM28.7728 44.762C25.2331 44.762 22.3636 41.8925 22.3636 38.3528H21.2954C21.2954 42.4825 24.6432 45.8302 28.7728 45.8302V44.762Z" fill="white"/>
</g>
<path id="trail" d="M27.6586 83.0818C19.7124 83.2785 19.7027 83.3183 24.1514 97.45C26.3236 104.35 28.3411 109.998 28.6349 110C28.9286 110.002 31.1188 104.239 33.5019 97.1936C38.478 82.4815 38.6142 82.8105 27.6586 83.0818Z" fill="#FF2121" stroke="white" stroke-width="1.0682"/>
</g>
</svg>
