<svg width="46" height="113" viewBox="0 0 46 113" fill="none" xmlns="http://www.w3.org/2000/svg">
<g id="rocket">
<g id="body">
<path fill-rule="evenodd" clip-rule="evenodd" d="M17.8673 84.1893C13.8054 84.2828 10.5115 84.914 10.5115 84.914C10.5115 84.914 7.32843 85.8551 4.17179 84.4816C1.01515 83.1081 -0.646067 65.7455 3.34821 64.4833C5.0531 63.9445 5.24495 62.5539 4.93979 52.9472C4.30948 33.105 9.39422 14.9029 18.515 4.35169C22.9385 -0.765494 24.2088 -0.360703 29.7034 7.91736C36.7393 18.5173 40.2296 31.7209 40.5276 48.8644C40.7406 61.1255 41.0691 63.5012 42.7211 64.7336C44.9788 66.418 45.2184 71.1274 43.4628 79.3133C42.2555 84.9428 41.1596 86.4097 37.2773 85.3005C33.395 84.1913 18.3095 84.1791 17.8673 84.1893ZM22.8572 35.3857C28.3707 35.3857 32.8402 30.9162 32.8402 25.4028C32.8402 19.8893 28.3707 15.4198 22.8572 15.4198C17.3438 15.4198 12.8743 19.8893 12.8743 25.4028C12.8743 30.9162 17.3438 35.3857 22.8572 35.3857Z" fill="#D24242"/>
<path d="M10.5115 84.914L10.4072 84.3693L10.3804 84.3744L10.3543 84.3821L10.5115 84.914ZM17.8673 84.1893L17.8546 83.6348L17.8546 83.6348L17.8673 84.1893ZM4.17179 84.4816L4.39307 83.973L4.39307 83.973L4.17179 84.4816ZM3.34821 64.4833L3.51533 65.0121L3.51533 65.0121L3.34821 64.4833ZM4.93979 52.9472L5.49412 52.9296L5.49412 52.9296L4.93979 52.9472ZM18.515 4.35169L18.0954 3.989L18.0954 3.989L18.515 4.35169ZM29.7034 7.91736L29.2413 8.22408L29.2413 8.22408L29.7034 7.91736ZM40.5276 48.8644L41.0821 48.8547L41.0821 48.8547L40.5276 48.8644ZM42.7211 64.7336L43.0528 64.2891L43.0528 64.2891L42.7211 64.7336ZM43.4628 79.3133L44.0051 79.4296L44.0051 79.4296L43.4628 79.3133ZM37.2773 85.3005L37.4297 84.7673L37.4297 84.7673L37.2773 85.3005ZM10.5115 84.914C10.6159 85.4587 10.6159 85.4587 10.6159 85.4587C10.6159 85.4587 10.6158 85.4587 10.6159 85.4587C10.6159 85.4587 10.616 85.4587 10.6161 85.4586C10.6164 85.4586 10.6168 85.4585 10.6175 85.4584C10.6188 85.4581 10.6209 85.4577 10.6238 85.4572C10.6295 85.4561 10.6384 85.4544 10.6504 85.4522C10.6743 85.4478 10.7105 85.4412 10.7582 85.4327C10.8537 85.4157 10.9955 85.3911 11.1788 85.3613C11.5455 85.3015 12.0778 85.2207 12.7363 85.1368C14.0541 84.9691 15.8732 84.7899 17.8801 84.7437L17.8546 83.6348C15.7995 83.6821 13.9407 83.8653 12.5962 84.0365C11.9234 84.1222 11.3784 84.2049 11.0005 84.2665C10.8116 84.2973 10.6643 84.3227 10.5638 84.3406C10.5136 84.3496 10.475 84.3566 10.4486 84.3615C10.4355 84.3639 10.4254 84.3658 10.4185 84.3671C10.415 84.3678 10.4123 84.3683 10.4104 84.3687C10.4095 84.3688 10.4087 84.369 10.4082 84.3691C10.4079 84.3691 10.4077 84.3692 10.4075 84.3692C10.4074 84.3692 10.4073 84.3692 10.4073 84.3692C10.4072 84.3693 10.4072 84.3693 10.5115 84.914ZM3.95051 84.9901C5.6322 85.7219 7.30987 85.8332 8.55499 85.7667C9.17951 85.7333 9.7014 85.6549 10.0694 85.5842C10.2537 85.5489 10.3999 85.5153 10.5018 85.4901C10.5527 85.4775 10.5926 85.467 10.6207 85.4593C10.6348 85.4555 10.6459 85.4524 10.6539 85.4501C10.6579 85.449 10.6612 85.448 10.6637 85.4473C10.6649 85.447 10.666 85.4466 10.6668 85.4464C10.6672 85.4463 10.6676 85.4462 10.668 85.4461C10.6681 85.446 10.6683 85.446 10.6684 85.4459C10.6686 85.4459 10.6688 85.4458 10.5115 84.914C10.3543 84.3821 10.3544 84.3821 10.3546 84.382C10.3546 84.382 10.3548 84.382 10.3548 84.382C10.355 84.3819 10.3551 84.3819 10.3551 84.3819C10.3552 84.3819 10.3551 84.3819 10.3548 84.382C10.3542 84.3822 10.3528 84.3825 10.3507 84.3831C10.3465 84.3843 10.3394 84.3863 10.3293 84.3891C10.3092 84.3945 10.2777 84.4029 10.2354 84.4133C10.1509 84.4342 10.0238 84.4635 9.86027 84.4949C9.53284 84.5578 9.06166 84.6288 8.49582 84.659C7.36022 84.7197 5.86802 84.6148 4.39307 83.973L3.95051 84.9901ZM3.18108 63.9544C2.49436 64.1715 1.98956 64.7153 1.62194 65.3803C1.2527 66.0483 0.987807 66.8974 0.803573 67.8411C0.43452 69.7314 0.367889 72.1149 0.525021 74.4775C0.682322 76.8427 1.06628 79.2224 1.61731 81.1103C1.89243 82.0529 2.21461 82.8918 2.58199 83.55C2.93898 84.1896 3.38539 84.7443 3.95051 84.9901L4.39307 83.973C4.16904 83.8756 3.87302 83.5872 3.55056 83.0094C3.23849 82.4503 2.94421 81.6975 2.6821 80.7995C2.15867 79.0062 1.78509 76.7089 1.63179 74.4039C1.47832 72.0964 1.54802 69.8167 1.89224 68.0536C2.06463 67.1706 2.3006 66.4454 2.59272 65.9169C2.88645 65.3856 3.20348 65.1106 3.51533 65.0121L3.18108 63.9544ZM4.38547 52.9648C4.53864 57.7868 4.56339 60.4814 4.34836 62.0399C4.24135 62.8155 4.08313 63.2351 3.90686 63.4833C3.74709 63.7083 3.53765 63.8418 3.18108 63.9544L3.51533 65.0121C4.01121 64.8554 4.46508 64.613 4.81125 64.1255C5.14092 63.6613 5.33125 63.0317 5.44717 62.1915C5.67801 60.5184 5.64611 57.7144 5.49412 52.9296L4.38547 52.9648ZM18.0954 3.989C8.85131 14.6828 3.75259 33.0422 4.38547 52.9648L5.49412 52.9296C4.86636 33.1679 9.93712 15.1229 18.9346 4.71439L18.0954 3.989ZM30.1655 7.61065C28.7915 5.54061 27.6656 3.93792 26.6805 2.78758C25.7055 1.64908 24.809 0.880234 23.8759 0.582885C22.8889 0.268349 21.9684 0.510419 21.0486 1.1247C20.1529 1.7229 19.2014 2.70951 18.0954 3.989L18.9346 4.71439C20.0403 3.43528 20.9064 2.55355 21.6647 2.04712C22.3989 1.55678 22.9687 1.45796 23.5391 1.63973C24.1634 1.83869 24.8911 2.40335 25.838 3.50905C26.7747 4.60291 27.868 6.15508 29.2413 8.22408L30.1655 7.61065ZM41.0821 48.8547C40.7829 31.6412 37.2769 18.3245 30.1655 7.61065L29.2413 8.22408C36.2016 18.7101 39.6763 31.8006 39.9731 48.874L41.0821 48.8547ZM43.0528 64.2891C42.406 63.8066 41.9424 63.089 41.6341 60.8588C41.3243 58.6179 41.1888 54.9947 41.0821 48.8547L39.9731 48.874C40.0794 54.9952 40.2146 58.6904 40.5353 61.0107C40.8576 63.3419 41.3842 64.4283 42.3895 65.1782L43.0528 64.2891ZM44.0051 79.4296C44.8866 75.3191 45.2771 72.04 45.1508 69.5572C45.0254 67.0919 44.3827 65.2813 43.0528 64.2891L42.3895 65.1782C43.3173 65.8703 43.9231 67.2566 44.043 69.6136C44.1621 71.9531 43.7946 75.1216 42.9206 79.197L44.0051 79.4296ZM37.1249 85.8338C39.1168 86.4029 40.6363 86.382 41.7699 85.2215C42.3036 84.6751 42.7085 83.9153 43.0539 82.9701C43.4005 82.0215 43.7017 80.8443 44.0051 79.4296L42.9206 79.197C42.6203 80.5971 42.3318 81.7143 42.012 82.5894C41.691 83.4679 41.3529 84.061 40.9764 84.4464C40.2897 85.1494 39.32 85.3074 37.4297 84.7673L37.1249 85.8338ZM17.8801 84.7437C18.0868 84.739 21.9574 84.7392 26.2642 84.8794C28.4161 84.9495 30.6699 85.0544 32.6247 85.2104C34.5951 85.3676 36.2143 85.5736 37.1249 85.8338L37.4297 84.7673C36.3992 84.4728 34.6768 84.2614 32.713 84.1047C30.7336 83.9467 28.4604 83.8412 26.3004 83.7708C21.9833 83.6302 18.0901 83.6294 17.8546 83.6348L17.8801 84.7437ZM32.2856 25.4028C32.2856 30.6099 28.0643 34.8311 22.8572 34.8311V35.9404C28.677 35.9404 33.3948 31.2225 33.3948 25.4028H32.2856ZM22.8572 15.9744C28.0643 15.9744 32.2856 20.1957 32.2856 25.4028H33.3948C33.3948 19.583 28.677 14.8652 22.8572 14.8652V15.9744ZM13.4289 25.4028C13.4289 20.1957 17.6501 15.9744 22.8572 15.9744V14.8652C17.0375 14.8652 12.3197 19.583 12.3197 25.4028H13.4289ZM22.8572 34.8311C17.6501 34.8311 13.4289 30.6099 13.4289 25.4028H12.3197C12.3197 31.2225 17.0375 35.9404 22.8572 35.9404V34.8311Z" fill="white"/>
</g>
<g id="trail">
<path d="M16.1902 95.0648C17.6947 99.548 18.7595 101.01 19.5294 103.603C20.2992 106.196 21.1932 105.821 22.4229 112.644C24.5208 103.603 25.6301 106.93 28.9577 96.3928C32.2854 85.8552 27.8471 85.8552 22.857 85.8552C17.8669 85.8552 13.038 85.6711 16.1902 95.0648Z" fill="#24DEEB"/>
<path d="M9.5464 93.0652C8.21534 91.7341 6.77336 88.4434 6.21875 86.9645C6.77336 87.3342 8.21534 87.8518 9.5464 86.9645C8.77466 87.9506 9.22484 91.4425 9.5464 93.0652Z" fill="#24DEEB"/>
<path d="M40.0499 88.0737C38.7188 88.5174 36.9071 87.8888 36.1676 87.5191C36.1676 88.6283 37.9409 90.1807 36.7769 94.6733C38.4223 92.9684 40.0499 88.6222 40.0499 88.0737Z" fill="#24DEEB"/>
<path d="M36.7222 94.729C36.7405 94.7107 36.7587 94.6922 36.7769 94.6733M36.7769 94.6733C38.4223 92.9684 40.0499 88.6222 40.0499 88.0737C38.7188 88.5174 36.9071 87.8888 36.1676 87.5191C36.1676 88.6283 37.9409 90.1807 36.7769 94.6733ZM19.5294 103.603C18.7595 101.01 17.6947 99.548 16.1902 95.0648C13.038 85.6711 17.8669 85.8552 22.857 85.8552C27.8471 85.8552 32.2854 85.8552 28.9577 96.3928C25.6301 106.93 24.5208 103.603 22.4229 112.644C21.1932 105.821 20.2992 106.196 19.5294 103.603ZM6.21875 86.9645C6.77336 88.4434 8.21534 91.7341 9.5464 93.0652C9.22484 91.4425 8.77466 87.9506 9.5464 86.9645C8.21534 87.8518 6.77336 87.3342 6.21875 86.9645Z" stroke="white" stroke-width="1.10922"/>
</g>
</g>
</svg>
