<svg width="47" height="113" viewBox="0 0 47 113" fill="none" xmlns="http://www.w3.org/2000/svg">
<g id="rocket">
<g id="body">
<path d="M5.93169 93.3015C0.118244 93.7229 -0.474401 100.623 4.7305 107.288C6.88892 110.052 7.97988 112.51 7.5 110C7.0964 107.889 8.45033 101.488 10.5194 99.7707C14.0164 96.8684 11.2153 92.9185 5.93169 93.3015Z" fill="_trail_"/>
<path d="M35.3707 96.1928C34.586 98.9448 37.1031 106.736 40 110C41.6984 111.914 42.3478 112.315 41.7668 110C41.4618 108.785 40.9558 105.237 41.7668 104.426C42.478 103.715 43.0599 102.54 43.0599 101.815C43.0599 101.09 43.6151 100.284 44.2936 100.023C45.8628 99.421 45.9045 95.3054 44.3545 94.019C41.8321 91.9256 36.1987 93.2887 35.3707 96.1928Z" fill="_trail_"/>
<path d="M5.93169 93.3015C0.118244 93.7229 -0.474401 100.623 4.7305 107.288C6.88892 110.052 7.97988 112.51 7.5 110C7.0964 107.889 8.45033 101.488 10.5194 99.7707C14.0164 96.8684 11.2153 92.9185 5.93169 93.3015Z" stroke="white"/>
<path d="M35.3707 96.1928C34.586 98.9448 37.1031 106.736 40 110C41.6984 111.914 42.3478 112.315 41.7668 110C41.4618 108.785 40.9558 105.237 41.7668 104.426C42.478 103.715 43.0599 102.54 43.0599 101.815C43.0599 101.09 43.6151 100.284 44.2936 100.023C45.8628 99.421 45.9045 95.3054 44.3545 94.019C41.8321 91.9256 36.1987 93.2887 35.3707 96.1928Z" stroke="white"/>
</g>
<g id="trail">
<path fill-rule="evenodd" clip-rule="evenodd" d="M1.01766 91.707C0.96419 91.3678 1.03629 90.7201 1.17804 90.2677C1.31978 89.8154 1.65607 85.5592 1.92523 80.8096C2.29275 74.3244 2.88307 71.15 4.29598 68.0618L4.29603 68.0617C5.27172 65.9291 5.7414 64.9025 6.22024 64.8982C6.6647 64.8942 7.11706 65.771 7.98929 67.4617C9.80124 70.9739 9.80127 70.9739 12.0377 66.5571C14.2369 62.2139 14.2741 61.8811 14.2741 46.5796C14.2741 29.124 15.0956 24.6339 20.4311 12.926C22.1088 9.24441 23 6.5 23 5.5C23 5.26596 23.0513 4.90211 23.1113 4.47649C23.1958 3.87683 23.2976 3.15456 23.2976 2.5C22.2834 1.6546 23 1.00006 23.5 1C24 0.999941 24.7772 1.62743 23.7625 2.5C23.7625 3.1193 23.8898 3.82857 23.9972 4.42717C24.0756 4.86419 24.1434 5.24223 24.1434 5.48321C24.1434 6.5 25.4153 10.4379 26.9698 14.0697C31.5416 24.751 31.747 25.9532 32.3314 45.4446C32.8696 63.394 32.9503 64.0577 35.0161 67.5532L35.0162 67.5533C36.0981 69.3839 36.6304 70.2845 37.1053 70.2552C37.5652 70.2268 37.9713 69.3262 38.7707 67.5533L38.7707 67.5532L38.7707 67.5532C40.3956 63.9495 40.3956 63.9495 42.2926 68.0618C43.6973 71.107 44.3356 74.4147 44.7526 80.8096C45.0622 85.5592 45.4557 90.0004 45.627 90.679C45.8763 91.6674 44.8375 91.9609 40.3998 92.1555H40.3997C36.9094 92.3085 35.6188 92.3651 35.2521 91.8106C35.0369 91.4852 35.1399 90.9495 35.3032 90.0995L35.3032 90.0994C36.2348 85.2517 28.7877 83.3612 25.4367 87.5948C24.3788 88.9313 23.8499 89.5995 23.321 89.5995C22.7921 89.5995 22.2631 88.9313 21.2053 87.5948C17.8619 83.3709 10.4147 85.2545 11.4503 90.0621C11.6309 90.9007 11.7446 91.4284 11.5403 91.7604C11.1936 92.3239 9.93118 92.3239 6.52628 92.3239C3.5501 92.3239 1.07121 92.0463 1.01766 91.707ZM23.4998 38.7001C25.2671 38.7001 26.6998 37.2674 26.6998 35.5C26.6998 33.7327 25.2671 32.3 23.4998 32.3C21.7325 32.3 20.2998 33.7327 20.2998 35.5C20.2998 37.2674 21.7325 38.7001 23.4998 38.7001ZM26.6998 51.5C26.6998 53.2674 25.2671 54.7001 23.4998 54.7001C21.7325 54.7001 20.2998 53.2674 20.2998 51.5C20.2998 49.7327 21.7325 48.3 23.4998 48.3C25.2671 48.3 26.6998 49.7327 26.6998 51.5ZM23.4998 46.7001C25.2671 46.7001 26.6998 45.2674 26.6998 43.5C26.6998 41.7327 25.2671 40.3 23.4998 40.3C21.7325 40.3 20.2998 41.7327 20.2998 43.5C20.2998 45.2674 21.7325 46.7001 23.4998 46.7001Z" fill="_body_"/>
<path d="M1.01766 91.707L0.523752 91.7848L0.523772 91.785L1.01766 91.707ZM1.92523 80.8096L2.42443 80.8379L2.42443 80.8379L1.92523 80.8096ZM4.29598 68.0618L3.84323 67.8495L3.84131 67.8537L4.29598 68.0618ZM4.29603 68.0617L4.74877 68.2739L4.7507 68.2697L4.29603 68.0617ZM6.22024 64.8982L6.22472 65.3982L6.22472 65.3982L6.22024 64.8982ZM7.98929 67.4617L8.43365 67.2325L8.43365 67.2325L7.98929 67.4617ZM12.0377 66.5571L11.5916 66.3313L11.5916 66.3313L12.0377 66.5571ZM20.4311 12.926L19.9761 12.7186L19.9761 12.7186L20.4311 12.926ZM23.1113 4.47649L23.6064 4.54627L23.6064 4.54627L23.1113 4.47649ZM23.2976 2.5H23.7976V2.26586L23.6177 2.11594L23.2976 2.5ZM23.5 1L23.4999 0.5L23.4999 0.5L23.5 1ZM23.7625 2.5L23.4365 2.1209L23.2625 2.27052V2.5H23.7625ZM23.9972 4.42717L23.5051 4.51548L23.5051 4.51548L23.9972 4.42717ZM26.9698 14.0697L26.5101 14.2665L26.5101 14.2665L26.9698 14.0697ZM32.3314 45.4446L32.8312 45.4296L32.8312 45.4296L32.3314 45.4446ZM35.0161 67.5532L34.5857 67.8076L34.5874 67.8104L35.0161 67.5532ZM35.0162 67.5533L35.4466 67.2989L35.4449 67.296L35.0162 67.5533ZM37.1053 70.2552L37.0745 69.7561L37.0745 69.7561L37.1053 70.2552ZM38.7707 67.5533L38.3234 67.3297L38.319 67.3386L38.3149 67.3478L38.7707 67.5533ZM38.7707 67.5532L39.2179 67.7768L39.2338 67.7451L39.245 67.7113L38.7707 67.5532ZM38.7707 67.5532L38.3149 67.3476L38.3044 67.3709L38.2964 67.395L38.7707 67.5532ZM42.2926 68.0618L42.7466 67.8523L42.7466 67.8523L42.2926 68.0618ZM44.7526 80.8096L45.2515 80.7771L45.2515 80.7771L44.7526 80.8096ZM45.627 90.679L46.1118 90.5567L46.1118 90.5566L45.627 90.679ZM40.3998 92.1555V92.6555H40.4107L40.4217 92.655L40.3998 92.1555ZM40.3997 92.1555V91.6555H40.3887L40.3778 91.656L40.3997 92.1555ZM35.2521 91.8106L34.835 92.0864L34.835 92.0864L35.2521 91.8106ZM35.3032 90.0995L35.7942 90.1938L35.7973 90.1777L35.7994 90.1615L35.3032 90.0995ZM35.3032 90.0994L34.8122 90.005L34.8091 90.0211L34.8071 90.0374L35.3032 90.0994ZM25.4367 87.5948L25.0446 87.2845L25.0446 87.2845L25.4367 87.5948ZM23.321 89.5995L23.321 89.0995L23.321 89.0995L23.321 89.5995ZM21.2053 87.5948L21.5973 87.2845L21.5973 87.2845L21.2053 87.5948ZM11.4503 90.0621L10.9615 90.1674L10.9615 90.1674L11.4503 90.0621ZM11.5403 91.7604L11.1145 91.4984L11.1145 91.4984L11.5403 91.7604ZM0.700915 90.1182C0.618455 90.3814 0.559522 90.6889 0.527717 90.9744C0.49669 91.2529 0.486865 91.5508 0.523752 91.7848L1.51156 91.6292C1.49498 91.524 1.49447 91.3284 1.52157 91.0851C1.54789 90.8489 1.59588 90.6064 1.65516 90.4172L0.700915 90.1182ZM1.42604 80.7813C1.29162 83.1533 1.14049 85.4009 1.00541 87.1108C0.937837 87.9661 0.874468 88.6844 0.819402 89.2154C0.791834 89.4813 0.766679 89.697 0.744484 89.858C0.73337 89.9386 0.723419 90.0025 0.714774 90.0504C0.705258 90.1031 0.700042 90.121 0.700915 90.1182L1.65516 90.4172C1.68746 90.3142 1.71281 90.1564 1.73512 89.9945C1.7595 89.8177 1.78597 89.5895 1.81407 89.3186C1.87034 88.7759 1.93444 88.0485 2.0023 87.1895C2.13809 85.4708 2.28969 83.2156 2.42443 80.8379L1.42604 80.7813ZM3.84131 67.8537C2.38846 71.0292 1.79445 74.2801 1.42604 80.7814L2.42443 80.8379C2.79104 74.3686 3.37768 71.2707 4.75065 68.2698L3.84131 67.8537ZM3.8433 67.8495L3.84325 67.8496L4.74871 68.274L4.74875 68.2739L3.8433 67.8495ZM6.21576 64.3982C5.90457 64.401 5.66574 64.5716 5.49636 64.7458C5.32536 64.9216 5.16643 65.1605 5.01031 65.4338C4.69706 65.9821 4.32454 66.7975 3.84135 67.8537L4.7507 68.2697C5.2432 67.1932 5.59337 66.4291 5.87859 65.9298C6.02171 65.6793 6.13097 65.5275 6.21319 65.443C6.29704 65.3568 6.29649 65.3975 6.22472 65.3982L6.21576 64.3982ZM8.43365 67.2325C8.00285 66.3974 7.65855 65.7288 7.3644 65.2732C7.21745 65.0456 7.0644 64.8411 6.89835 64.6898C6.73219 64.5383 6.50355 64.3956 6.21576 64.3982L6.22472 65.3982C6.15917 65.3987 6.15374 65.3641 6.22466 65.4288C6.29569 65.4935 6.39358 65.6132 6.52431 65.8157C6.78551 66.2202 7.1035 66.8353 7.54494 67.691L8.43365 67.2325ZM11.5916 66.3313C11.0284 67.4435 10.6193 68.2508 10.2887 68.7968C10.1235 69.0696 9.99119 69.2546 9.88309 69.3726C9.76977 69.4962 9.72536 69.4993 9.74529 69.4948C9.79518 69.4837 9.81708 69.5131 9.7728 69.4805C9.71359 69.4371 9.6193 69.3386 9.48486 69.1415C9.21673 68.7483 8.89358 68.124 8.43365 67.2325L7.54494 67.6909C7.99098 68.5555 8.34731 69.2483 8.65868 69.7049C8.81401 69.9327 8.98447 70.1423 9.18084 70.2865C9.39213 70.4417 9.66043 70.5384 9.96334 70.4708C10.2363 70.4098 10.4516 70.2324 10.6203 70.0482C10.7943 69.8583 10.9666 69.608 11.1442 69.3147C11.4992 68.7282 11.9288 67.8791 12.4838 66.783L11.5916 66.3313ZM13.7741 46.5796C13.7741 54.2468 13.764 58.1186 13.4837 60.6221C13.2095 63.0721 12.6821 64.1777 11.5916 66.3313L12.4838 66.783C13.5925 64.5933 14.1834 63.3609 14.4775 60.7333C14.7657 58.1593 14.7741 54.2139 14.7741 46.5796H13.7741ZM19.9761 12.7186C17.3026 18.5852 15.7433 22.6788 14.86 27.5074C13.9786 32.3249 13.7741 37.8524 13.7741 46.5796H14.7741C14.7741 37.8511 14.9804 32.4058 15.8436 27.6874C16.7048 22.98 18.2241 18.9747 20.886 13.1333L19.9761 12.7186ZM22.5 5.5C22.5 5.90699 22.3054 6.77039 21.8713 8.04636C21.4454 9.29822 20.8099 10.8889 19.9761 12.7186L20.886 13.1333C21.73 11.2815 22.3789 9.65918 22.818 8.36845C23.249 7.10181 23.5 6.09301 23.5 5.5H22.5ZM22.6162 4.40671C22.5587 4.81435 22.5 5.22183 22.5 5.5H23.5C23.5 5.3101 23.5439 4.98987 23.6064 4.54627L22.6162 4.40671ZM22.7976 2.5C22.7976 3.11322 22.7017 3.79989 22.6162 4.40672L23.6064 4.54627C23.6899 3.95377 23.7976 3.19589 23.7976 2.5H22.7976ZM23.4999 0.5C23.0774 0.500049 22.5749 0.759012 22.3711 1.23682C22.133 1.79492 22.3852 2.39042 22.9774 2.88406L23.6177 2.11594C23.4071 1.94039 23.3271 1.80787 23.2992 1.73335C23.2751 1.66918 23.2857 1.64141 23.2909 1.62917C23.3003 1.6071 23.3256 1.57276 23.3762 1.54178C23.4284 1.50975 23.4775 1.5 23.5001 1.5L23.4999 0.5ZM24.0885 2.8791C24.3844 2.62465 24.5931 2.35178 24.693 2.05914C24.7973 1.7541 24.7724 1.45669 24.6485 1.20322C24.4211 0.737855 23.908 0.499952 23.4999 0.5L23.5001 1.5C23.5281 1.5 23.586 1.5113 23.6474 1.54621C23.7074 1.58036 23.7384 1.61844 23.75 1.64231C23.7561 1.65478 23.7666 1.67785 23.7467 1.73587C23.7227 1.80629 23.648 1.93907 23.4365 2.1209L24.0885 2.8791ZM24.4893 4.33887C24.38 3.72962 24.2625 3.06634 24.2625 2.5H23.2625C23.2625 3.17225 23.3996 3.92752 23.5051 4.51548L24.4893 4.33887ZM24.6434 5.48321C24.6434 5.18615 24.5636 4.75286 24.4893 4.33887L23.5051 4.51548C23.5876 4.97553 23.6434 5.29831 23.6434 5.48321H24.6434ZM27.4294 13.873C26.6579 12.0704 25.9565 10.1917 25.4489 8.64035C25.195 7.86439 24.9911 7.17499 24.8513 6.62078C24.7073 6.05009 24.6434 5.66822 24.6434 5.48321H23.6434C23.6434 5.8066 23.7386 6.29826 23.8816 6.8654C24.0289 7.44902 24.2401 8.16174 24.4985 8.95134C25.0154 10.5311 25.7272 12.4373 26.5101 14.2665L27.4294 13.873ZM32.8312 45.4296C32.5394 35.6977 32.3418 30.4836 31.6387 26.3691C30.9318 22.2324 29.7149 19.2126 27.4294 13.873L26.5101 14.2665C28.7964 19.6081 29.9682 22.5301 30.653 26.5376C31.3416 30.5674 31.539 35.7001 31.8317 45.4596L32.8312 45.4296ZM35.4466 67.2988C34.9312 66.4268 34.5596 65.7637 34.2701 64.9758C33.9813 64.1897 33.7673 63.2589 33.5973 61.8588C33.2551 59.041 33.1007 54.4176 32.8312 45.4296L31.8317 45.4596C32.1003 54.4209 32.2554 59.1041 32.6045 61.9794C32.7802 63.4259 33.0073 64.4383 33.3315 65.3206C33.6549 66.2012 34.0681 66.9319 34.5857 67.8076L35.4466 67.2988ZM35.4449 67.296L35.4449 67.2959L34.5874 67.8104L34.5874 67.8105L35.4449 67.296ZM37.0745 69.7561C37.1307 69.7527 37.1296 69.7829 37.0466 69.7153C36.9628 69.647 36.8479 69.5208 36.6926 69.3075C36.3825 68.8813 35.9935 68.2242 35.4466 67.2989L34.5857 67.8077C35.1208 68.7129 35.5388 69.4214 35.8841 69.8959C36.0565 70.1329 36.2313 70.3408 36.4147 70.4903C36.5989 70.6405 36.8423 70.7724 37.1361 70.7542L37.0745 69.7561ZM38.3149 67.3478C37.9103 68.245 37.6208 68.8855 37.3772 69.3092C37.2554 69.521 37.1621 69.6478 37.0922 69.7182C37.0235 69.7873 37.0205 69.7595 37.0745 69.7561L37.1361 70.7542C37.42 70.7367 37.6402 70.5856 37.802 70.4225C37.9626 70.2607 38.107 70.0462 38.2441 69.8077C38.5184 69.3307 38.8316 68.6345 39.2265 67.7588L38.3149 67.3478ZM38.3235 67.3296L38.3234 67.3297L39.2179 67.7769L39.2179 67.7768L38.3235 67.3296ZM38.2964 67.395L38.2964 67.3951L39.245 67.7113L39.2451 67.7113L38.2964 67.395ZM42.7466 67.8523C42.2763 66.8329 41.9109 66.0398 41.6068 65.4965C41.455 65.2254 41.3044 64.9902 41.1481 64.8129C40.9988 64.6436 40.7867 64.4604 40.5011 64.4192C40.1872 64.3738 39.9351 64.5175 39.7604 64.6782C39.5918 64.8333 39.4443 65.0482 39.3078 65.2821C39.0332 65.753 38.7158 66.4586 38.3149 67.3476L39.2265 67.7587C39.6381 66.8459 39.93 66.2002 40.1716 65.786C40.2933 65.5774 40.3806 65.4664 40.4374 65.4141C40.4882 65.3675 40.4518 65.4224 40.3581 65.4089C40.2926 65.3994 40.3049 65.3686 40.398 65.4742C40.484 65.5718 40.5938 65.7341 40.7342 65.9849C41.0144 66.4855 41.3603 67.2346 41.8385 68.2712L42.7466 67.8523ZM45.2515 80.7771C44.8335 74.3663 44.1909 70.9834 42.7466 67.8523L41.8385 68.2712C43.2037 71.2306 43.8377 74.4631 44.2536 80.8422L45.2515 80.7771ZM46.1118 90.5566C46.079 90.4268 46.0255 90.0592 45.9585 89.4627C45.8933 88.8822 45.8188 88.1193 45.7397 87.2268C45.5816 85.4425 45.4061 83.1487 45.2515 80.7771L44.2536 80.8422C44.4086 83.2202 44.5847 85.5218 44.7436 87.3151C44.823 88.2115 44.8983 88.9829 44.9648 89.5743C45.0294 90.1498 45.0893 90.5919 45.1421 90.8013L46.1118 90.5566ZM40.4217 92.655C42.6266 92.5583 44.0572 92.4361 44.9069 92.1961C45.328 92.0772 45.7023 91.9048 45.9344 91.606C46.1934 91.2724 46.1962 90.8916 46.1118 90.5567L45.1421 90.8012C45.1823 90.9605 45.1488 90.9871 45.1445 90.9927C45.1132 91.0329 44.9972 91.1315 44.6351 91.2338C43.9183 91.4362 42.6106 91.5581 40.3779 91.656L40.4217 92.655ZM40.3997 92.6555H40.3998V91.6555H40.3997V92.6555ZM34.835 92.0864C35.0111 92.3526 35.277 92.5061 35.5725 92.5976C35.8607 92.6868 36.2158 92.7292 36.6322 92.7478C37.4649 92.7851 38.6883 92.731 40.4216 92.655L40.3778 91.656C38.6208 91.733 37.4538 91.7836 36.6769 91.7488C36.2885 91.7314 36.034 91.6936 35.8681 91.6423C35.7093 91.5931 35.6764 91.5458 35.6691 91.5348L34.835 92.0864ZM34.8122 90.0051C34.7327 90.4187 34.6587 90.7995 34.6369 91.1176C34.6153 91.4327 34.6355 91.7846 34.835 92.0864L35.6691 91.5348C35.6535 91.5112 35.6176 91.4325 35.6345 91.186C35.6513 90.9424 35.7104 90.6303 35.7942 90.1938L34.8122 90.0051ZM34.8071 90.0374L34.8071 90.0375L35.7994 90.1615L35.7994 90.1614L34.8071 90.0374ZM25.8287 87.9051C27.3637 85.9659 29.8495 85.4177 31.8529 85.9262C32.8508 86.1795 33.694 86.6871 34.2319 87.3754C34.7613 88.053 35.0182 88.933 34.8122 90.005L35.7943 90.1937C36.0541 88.8419 35.7294 87.6677 35.0198 86.7597C34.3187 85.8624 33.2653 85.253 32.099 84.957C29.7739 84.3668 26.8607 84.9901 25.0446 87.2845L25.8287 87.9051ZM23.321 90.0995C23.8033 90.0995 24.1949 89.7946 24.5359 89.45C24.8907 89.0914 25.3077 88.5634 25.8287 87.9051L25.0446 87.2845C24.5079 87.9626 24.1314 88.437 23.8251 88.7466C23.5049 89.0702 23.3676 89.0995 23.321 89.0995V90.0995ZM20.8132 87.9051C21.3343 88.5634 21.7512 89.0914 22.106 89.45C22.447 89.7946 22.8386 90.0995 23.321 90.0995L23.321 89.0995C23.2744 89.0995 23.1371 89.0702 22.8169 88.7466C22.5106 88.437 22.1341 87.9626 21.5973 87.2845L20.8132 87.9051ZM11.9391 89.9568C11.7104 88.8953 11.9506 88.0268 12.4639 87.3592C12.9862 86.6798 13.8174 86.177 14.8083 85.9264C16.7977 85.4232 19.2819 85.9705 20.8132 87.9051L21.5973 87.2845C19.7852 84.9951 16.8742 84.3724 14.5631 84.9569C13.4037 85.2502 12.3583 85.8557 11.6711 86.7497C10.9747 87.6554 10.6724 88.8251 10.9615 90.1674L11.9391 89.9568ZM11.9662 92.0224C12.154 91.7172 12.1662 91.3688 12.1376 91.0557C12.1087 90.7404 12.027 90.3648 11.9391 89.9568L10.9615 90.1674C11.0543 90.598 11.1197 90.9056 11.1417 91.1468C11.164 91.3901 11.131 91.4716 11.1145 91.4984L11.9662 92.0224ZM6.52628 92.8239C8.21676 92.8239 9.41211 92.8244 10.2248 92.7514C10.6314 92.7149 10.9782 92.6575 11.2586 92.5566C11.5465 92.4531 11.8014 92.2902 11.9662 92.0224L11.1145 91.4984C11.1059 91.5123 11.073 91.5607 10.9202 91.6156C10.76 91.6733 10.5134 91.7215 10.1354 91.7554C9.37901 91.8233 8.2407 91.8239 6.52628 91.8239V92.8239ZM0.523772 91.785C0.550376 91.9535 0.643589 92.0682 0.711837 92.1329C0.781261 92.1986 0.857891 92.2445 0.9209 92.2765C1.04739 92.3409 1.20093 92.3903 1.3578 92.4307C1.67762 92.5131 2.11232 92.5827 2.62034 92.6395C3.64203 92.754 5.02512 92.8239 6.52628 92.8239V91.8239C5.05126 91.8239 3.70681 91.755 2.73162 91.6458C2.24121 91.5908 1.86013 91.5274 1.60709 91.4623C1.47754 91.4289 1.40538 91.401 1.37442 91.3853C1.35871 91.3773 1.37369 91.3824 1.39946 91.4068C1.42406 91.4301 1.49163 91.5029 1.51154 91.629L0.523772 91.785ZM26.1998 35.5C26.1998 36.9912 24.991 38.2001 23.4998 38.2001V39.2001C25.5433 39.2001 27.1998 37.5435 27.1998 35.5H26.1998ZM23.4998 32.8C24.991 32.8 26.1998 34.0089 26.1998 35.5H27.1998C27.1998 33.4566 25.5433 31.8 23.4998 31.8V32.8ZM20.7998 35.5C20.7998 34.0089 22.0086 32.8 23.4998 32.8V31.8C21.4564 31.8 19.7998 33.4566 19.7998 35.5H20.7998ZM23.4998 38.2001C22.0086 38.2001 20.7998 36.9912 20.7998 35.5H19.7998C19.7998 37.5435 21.4564 39.2001 23.4998 39.2001V38.2001ZM23.4998 55.2001C25.5433 55.2001 27.1998 53.5435 27.1998 51.5H26.1998C26.1998 52.9912 24.991 54.2001 23.4998 54.2001V55.2001ZM19.7998 51.5C19.7998 53.5435 21.4564 55.2001 23.4998 55.2001V54.2001C22.0086 54.2001 20.7998 52.9912 20.7998 51.5H19.7998ZM23.4998 47.8C21.4564 47.8 19.7998 49.4566 19.7998 51.5H20.7998C20.7998 50.0089 22.0086 48.8 23.4998 48.8V47.8ZM27.1998 51.5C27.1998 49.4566 25.5433 47.8 23.4998 47.8V48.8C24.991 48.8 26.1998 50.0089 26.1998 51.5H27.1998ZM26.1998 43.5C26.1998 44.9912 24.991 46.2001 23.4998 46.2001V47.2001C25.5433 47.2001 27.1998 45.5435 27.1998 43.5H26.1998ZM23.4998 40.8C24.991 40.8 26.1998 42.0089 26.1998 43.5H27.1998C27.1998 41.4566 25.5433 39.8 23.4998 39.8V40.8ZM20.7998 43.5C20.7998 42.0089 22.0086 40.8 23.4998 40.8V39.8C21.4564 39.8 19.7998 41.4566 19.7998 43.5H20.7998ZM23.4998 46.2001C22.0086 46.2001 20.7998 44.9912 20.7998 43.5H19.7998C19.7998 45.5435 21.4564 47.2001 23.4998 47.2001V46.2001Z" fill="white"/>
</g>
</g>
</svg>
