<svg width="72" height="111" viewBox="0 0 72 111" fill="none" xmlns="http://www.w3.org/2000/svg">
<g id="rocket">
<g id="body">
<path fill-rule="evenodd" clip-rule="evenodd" d="M25.5098 69.0333C24.7116 68.5507 22.8723 65.9696 21.4224 63.2977C17.8744 56.7587 14.3287 56.3413 6.58718 61.551C3.51423 63.6189 1 64.8386 1 64.2613C1 59.7654 10.0073 49.2203 15.6946 47.0581C18.0265 46.1714 18.2736 45.4432 18.2736 39.4591C18.2736 26.3631 23.0018 14.214 31.5721 5.28817C35.7673 0.918976 36.0488 0.79996 38.0045 2.56983C46.2011 9.98764 52.4626 24.2531 53.5115 37.8993C54.0626 45.0678 54.643 47.4495 55.9566 47.9318C59.9005 49.3796 65.0768 54.3221 68.0162 59.4467C72.2662 66.8563 72.0435 67.1703 65.655 62.7758C57.3382 57.0548 53.1131 57.4057 49.5821 64.1105C46.8941 69.2146 46.861 69.235 41.4851 69.124L25.5098 69.0333ZM35.5479 40.3658C39.4235 40.3658 42.5653 37.224 42.5653 33.3484C42.5653 29.4728 39.4235 26.331 35.5479 26.331C31.6722 26.331 28.5304 29.4728 28.5304 33.3484C28.5304 37.224 31.6722 40.3658 35.5479 40.3658Z" fill="_body_"/>
<path d="M21.4224 63.2977L20.9708 63.5427L20.9708 63.5427L21.4224 63.2977ZM25.5098 69.0333L25.2439 69.4731L25.3651 69.5464L25.5068 69.5472L25.5098 69.0333ZM6.58718 61.551L6.87407 61.9773L6.87407 61.9773L6.58718 61.551ZM15.6946 47.0581L15.8772 47.5384L15.8772 47.5384L15.6946 47.0581ZM31.5721 5.28817L31.9428 5.64407L31.9428 5.64407L31.5721 5.28817ZM38.0045 2.56983L37.6597 2.95082L37.6597 2.95083L38.0045 2.56983ZM53.5115 37.8993L54.0239 37.8599L54.0239 37.8599L53.5115 37.8993ZM55.9566 47.9318L56.1337 47.4494L56.1337 47.4494L55.9566 47.9318ZM68.0162 59.4467L67.5704 59.7024L67.5704 59.7024L68.0162 59.4467ZM65.655 62.7758L65.3638 63.1991L65.3638 63.1991L65.655 62.7758ZM49.5821 64.1105L49.1274 63.871L49.1274 63.871L49.5821 64.1105ZM41.4851 69.124L41.4957 68.6102L41.488 68.6102L41.4851 69.124ZM20.9708 63.5427C21.7051 64.896 22.5383 66.2271 23.292 67.2847C23.6687 67.8133 24.0294 68.2791 24.3514 68.6475C24.6626 69.0035 24.9713 69.3082 25.2439 69.4731L25.7756 68.5936C25.6491 68.5171 25.4286 68.3182 25.1252 67.9711C24.8325 67.6363 24.4931 67.1994 24.129 66.6883C23.401 65.6668 22.5897 64.3713 21.8741 63.0526L20.9708 63.5427ZM6.87407 61.9773C10.7463 59.3715 13.4252 58.2826 15.5173 58.5289C17.5516 58.7684 19.2139 60.3049 20.9708 63.5427L21.8741 63.0526C20.0829 59.7515 18.1983 57.8098 15.6374 57.5083C13.1343 57.2136 10.1696 58.5208 6.30029 61.1247L6.87407 61.9773ZM0.486145 64.2613C0.486145 64.3947 0.524776 64.5505 0.639472 64.6838C0.749367 64.8116 0.887009 64.8695 0.994624 64.8952C1.19016 64.9419 1.39776 64.9095 1.55641 64.8728C1.89865 64.7939 2.35151 64.6098 2.86551 64.3604C3.90735 63.855 5.32593 63.0191 6.87407 61.9773L6.30029 61.1247C4.77548 62.1508 3.40047 62.9587 2.41696 63.4358C1.91828 63.6777 1.55052 63.8195 1.32532 63.8715C1.20025 63.9003 1.18741 63.8846 1.23345 63.8956C1.26631 63.9035 1.34694 63.9304 1.4185 64.0135C1.49487 64.1023 1.51385 64.2001 1.51385 64.2613H0.486145ZM15.5119 46.5777C12.5439 47.7062 8.80098 50.9654 5.82383 54.4508C4.32657 56.2037 3.00203 58.038 2.04869 59.7282C1.10641 61.3987 0.486145 62.9983 0.486145 64.2613H1.51385C1.51385 63.2763 2.0195 61.8718 2.94382 60.2331C3.85707 58.614 5.13981 56.834 6.60527 55.1183C9.55359 51.6666 13.158 48.5722 15.8772 47.5384L15.5119 46.5777ZM17.7598 39.4591C17.7598 40.955 17.7442 42.1077 17.6858 43.0132C17.6271 43.9226 17.5268 44.5489 17.372 45.005C17.2227 45.4449 17.0245 45.7213 16.7565 45.94C16.4726 46.1716 16.0852 46.3598 15.5119 46.5777L15.8772 47.5384C16.4699 47.313 16.9878 47.0777 17.4062 46.7363C17.8403 46.3821 18.1412 45.9363 18.3452 45.3353C18.5436 44.7505 18.6508 44.0173 18.7114 43.0794C18.7722 42.1375 18.7875 40.9552 18.7875 39.4591H17.7598ZM31.2014 4.93228C22.5335 13.9598 17.7598 26.239 17.7598 39.4591H18.7875C18.7875 26.4873 23.4701 14.4682 31.9428 5.64407L31.2014 4.93228ZM38.3493 2.18883C37.8705 1.75552 37.4298 1.37479 36.9798 1.16697C36.48 0.936178 35.9795 0.920502 35.4281 1.15353C34.9202 1.36816 34.3751 1.79141 33.7232 2.39393C33.063 3.00412 32.2481 3.84222 31.2014 4.93228L31.9428 5.64407C32.9937 4.54953 33.7871 3.73431 34.4208 3.14864C35.0627 2.55533 35.4968 2.24021 35.8281 2.10017C36.116 1.97853 36.3148 1.99187 36.5489 2.1C36.8328 2.23111 37.1607 2.4992 37.6597 2.95082L38.3493 2.18883ZM54.0239 37.8599C52.9674 24.1154 46.6653 9.71473 38.3493 2.18883L37.6597 2.95083C45.7369 10.2606 51.9578 24.3908 52.9992 37.9386L54.0239 37.8599ZM56.1337 47.4494C55.7451 47.3067 55.323 46.8424 54.9474 45.3012C54.5803 43.795 54.2995 41.446 54.0239 37.8599L52.9992 37.9386C53.2746 41.521 53.5596 43.9472 53.9489 45.5445C54.3296 47.1069 54.8545 48.0746 55.7795 48.4141L56.1337 47.4494ZM68.4619 59.191C66.9651 56.5815 64.9043 54.0263 62.718 51.9388C60.538 49.8573 58.1985 48.2074 56.1337 47.4494L55.7795 48.4141C57.6586 49.104 59.8792 50.6492 62.0082 52.6821C64.1309 54.7089 66.1278 57.1873 67.5704 59.7024L68.4619 59.191ZM65.3638 63.1991C66.9577 64.2956 68.1895 65.1142 69.0676 65.6009C69.5016 65.8415 69.8844 66.0213 70.1992 66.1042C70.3562 66.1456 70.5343 66.1735 70.7116 66.149C70.9044 66.1223 71.1057 66.0302 71.2442 65.8351C71.3708 65.6565 71.3993 65.4545 71.3981 65.2934C71.3968 65.1287 71.3643 64.9542 71.3172 64.7804C71.2227 64.4323 71.0448 63.9993 70.8026 63.49C70.3159 62.4667 69.5231 61.0412 68.4619 59.191L67.5704 59.7024C68.6342 61.557 69.4074 62.9493 69.8746 63.9315C70.1093 64.425 70.2554 64.7917 70.3253 65.0494C70.3603 65.1785 70.3701 65.2586 70.3704 65.3011C70.3707 65.3472 70.36 65.3052 70.4059 65.2405C70.4636 65.1592 70.5426 65.1349 70.5707 65.131C70.5833 65.1292 70.5544 65.135 70.461 65.1104C70.2753 65.0615 69.9847 64.9342 69.5659 64.7021C68.7382 64.2433 67.5465 63.4532 65.9462 62.3524L65.3638 63.1991ZM50.0368 64.3499C51.7731 61.0528 53.5929 59.4843 55.8664 59.2955C58.2084 59.1011 61.2108 60.3424 65.3638 63.1991L65.9462 62.3524C61.7824 59.4882 58.5138 58.0445 55.7813 58.2714C52.9804 58.504 50.9221 60.4633 49.1274 63.871L50.0368 64.3499ZM41.4745 69.6378C42.8084 69.6653 43.849 69.6861 44.6825 69.6174C45.5252 69.5479 46.2078 69.384 46.8121 69.0098C47.4131 68.6377 47.8868 68.0883 48.3702 67.3421C48.8508 66.6003 49.3689 65.6181 50.0368 64.3499L49.1274 63.871C48.4513 65.1549 47.9573 66.0893 47.5077 66.7834C47.0609 67.4731 46.6864 67.8789 46.2711 68.136C45.8591 68.3911 45.3574 68.5305 44.598 68.5931C43.8293 68.6565 42.8497 68.6382 41.4957 68.6103L41.4745 69.6378ZM25.5068 69.5472L41.4822 69.6379L41.488 68.6102L25.5127 68.5195L25.5068 69.5472ZM42.0514 33.3484C42.0514 36.9402 39.1397 39.8519 35.5479 39.8519V40.8796C39.7073 40.8796 43.0791 37.5078 43.0791 33.3484H42.0514ZM35.5479 26.8448C39.1397 26.8448 42.0514 29.7566 42.0514 33.3484H43.0791C43.0791 29.189 39.7073 25.8171 35.5479 25.8171V26.8448ZM29.0443 33.3484C29.0443 29.7566 31.956 26.8448 35.5479 26.8448V25.8171C31.3885 25.8171 28.0166 29.189 28.0166 33.3484H29.0443ZM35.5479 39.8519C31.956 39.8519 29.0443 36.9402 29.0443 33.3484H28.0166C28.0166 37.5078 31.3885 40.8796 35.5479 40.8796V39.8519Z" fill="white"/>
</g>
<g id="trail">
<path d="M29.0689 104.602C29.6087 101.903 27.9893 98.1243 26.3699 98.6641C26.0108 95.9704 27.2647 93.2169 28.5615 91.2385C27.5222 92.2941 26.1031 93.6732 24.2107 95.4253C26.3699 88.4079 24.1322 85.7089 21.5117 89.4875C22.1171 87.8953 23.1917 76.9097 22.5913 78.1517C22.2526 77.6037 24.0513 72.8743 25.2903 71.1343H41.4844C46.2029 71.7401 49.6079 76.1947 49.5055 80.8788C49.4171 84.9236 46.8824 84.0895 47.4222 88.9477C42.564 87.1217 41.4844 83.7167 37.4834 82.1751C46.2189 87.8275 42.3059 91.1069 42.3059 94.158C40.4048 91.6467 38.9515 93.4598 40.4048 98.6641C38.4117 97.2384 33.6669 104.98 35.0067 110C32.6429 104.896 31.3435 103.623 29.0689 104.602Z" fill="_trail_"/>
<path d="M29.0689 104.602C29.6087 101.903 27.9893 98.1243 26.3699 98.6641C25.2903 90.5671 38.7854 81.9303 24.2107 95.4253C26.3699 88.4079 24.1322 85.7089 21.5117 89.4875C22.1171 87.8953 23.1917 76.9097 22.5913 78.1517C22.2526 77.6037 24.0513 72.8743 25.2903 71.1343H41.4844C46.2029 71.7401 49.6079 76.1947 49.5055 80.8788C49.4171 84.9236 46.8824 84.0895 47.4222 88.9477C42.564 87.1217 41.4844 83.7167 37.4834 82.1751C46.2189 87.8275 42.3059 91.1069 42.3059 94.158C40.4048 91.6467 38.9515 93.4598 40.4048 98.6641C38.4117 97.2384 33.6669 104.98 35.0067 110C32.6429 104.896 31.3435 103.623 29.0689 104.602Z" stroke="white" stroke-width="1.02771"/>
</g>
</g>
</svg>
